<svg version="1.0" xmlns="http://www.w3.org/2000/svg" width="256pt" height="256pt" viewBox="0 0 256 256"><g transform="translate(0.000000,256.000000) scale(0.100000,-0.100000)" fill="#000" stroke="none"><path d="M265 2426c-55-25-119-90-141-142-12-28-14-194-14-1006 0-1093-5-1012 75-1093 81-80 0-75 1095-75 1095 0 1014-5 1095 75 80 81 75 0 75 1093 0 812-2 978-14 1006-22 52-86 117-141 142l-50 24h-965-965l-50-24zm2001-76c24-12 54-39 70-62l29-41v-967-966l-27-41c-16-24-44-49-70-62-44-21-47-21-992-21-909 0-948 1-984 19-42 22-63 43-86 88-14 29-16 126-16 983 0 913 1 952 19 988 23 45 46 66 91 86 30 13 161 15 979 16 930 0 945 0 987-20z"/><path d="M460 1960v-140h140 140v140 140H6e2 460v-140zm240 0v-1e2H6e2 5e2v1e2 1e2h1e2 1e2v-1e2z"/><path d="M860 2080c0-17-7-20-40-20-33 0-40-3-40-20 0-13 7-20 20-20 18 0 20-7 20-60 0-53-2-60-20-60-18 0-20-7-20-60v-60h-80-80v-40c0-33-3-40-20-40-13 0-20 7-20 20 0 13-7 20-20 20-13 0-20-7-20-20 0-17-7-20-40-20h-40v-40c0-33 3-40 20-40 13 0 20-7 20-20 0-13 7-20 20-20 13 0 20 7 20 20 0 13-7 20-20 20-13 0-20 7-20 20 0 18 7 20 80 20 73 0 80-2 80-20 0-13-7-20-20-20-18 0-20-7-20-60 0-53-2-60-20-60-13 0-20-7-20-20 0-13 7-20 20-20 13 0 20 7 20 20 0 13 7 20 20 20 17 0 20-7 20-40v-40h40c33 0 40-3 40-20 0-18-7-20-60-20-53 0-60 2-60 20 0 17-7 20-40 20-33 0-40-3-40-20 0-13-7-20-20-20-17 0-20-7-20-40v-40h40c33 0 40-3 40-20 0-13-7-20-20-20-13 0-20-7-20-20 0-13-7-20-20-20-13 0-20 7-20 20 0 13-7 20-20 20-17 0-20-7-20-40 0-33 3-40 20-40 13 0 20-7 20-20 0-13 7-20 20-20 17 0 20 7 20 40v40h40 40v40 40h40c33 0 40-3 40-20 0-13 7-20 20-20 13 0 20-7 20-20 0-17-7-20-40-20-33 0-40-3-40-20 0-17-7-20-40-20-33 0-40-3-40-20 0-18 7-20 60-20 53 0 60-2 60-20 0-13 7-20 20-20 13 0 20 7 20 20 0 13 7 20 20 20 13 0 20 7 20 20 0 13-7 20-20 20-13 0-20 7-20 20 0 17 7 20 40 20 33 0 40-3 40-20 0-13 7-20 20-20 13 0 20 7 20 20 0 13-7 20-20 20-17 0-20 7-20 40v40h40c33 0 40 3 40 20 0 18-7 20-80 20-73 0-80 2-80 20 0 19 7 20 1e2 20h1e2v-40-40h40 40v-40c0-33-3-40-20-40-13 0-20 7-20 20 0 17-7 20-40 20h-40v-60c0-53-2-60-20-60-18 0-20-7-20-60 0-53 2-60 20-60 13 0 20-7 20-20 0-17-7-20-40-20h-40v60c0 53-2 60-20 60-13 0-20-7-20-20 0-17-7-20-40-20-33 0-40-3-40-20 0-13-7-20-20-20-13 0-20 7-20 20 0 13-7 20-20 20-13 0-20 7-20 20 0 17-7 20-40 20-33 0-40-3-40-20 0-13-7-20-20-20-13 0-20 7-20 20 0 13-7 20-20 20-17 0-20-7-20-40 0-33 3-40 20-40 17 0 20-7 20-40 0-33-3-40-20-40-13 0-20-7-20-20 0-18 7-20 60-20 53 0 60 2 60 20 0 13 7 20 20 20 13 0 20-7 20-20 0-17 7-20 40-20 33 0 40-3 40-20 0-17 7-20 40-20 33 0 40-3 40-20 0-17-7-20-40-20-33 0-40-3-40-20 0-17 7-20 40-20h40v-80c0-73 2-80 20-80 13 0 20 7 20 20 0 13 7 20 20 20 13 0 20 7 20 20 0 17 7 20 40 20 33 0 40 3 40 20 0 13 7 20 20 20 13 0 20-7 20-20 0-13 7-20 20-20 13 0 20-7 20-20 0-13 7-20 20-20 17 0 20 7 20 40 0 33 3 40 20 40 18 0 20-7 20-60v-60h-60c-53 0-60 2-60 20 0 13-7 20-20 20-17 0-20-7-20-40v-40h-40c-33 0-40-3-40-20 0-13-7-20-20-20-17 0-20-7-20-40 0-33 3-40 20-40 17 0 20 7 20 40v40h60 60v-40-40h40c33 0 40 3 40 20 0 13-7 20-20 20-13 0-20 7-20 20 0 13-7 20-20 20-13 0-20 7-20 20 0 18 7 20 60 20 53 0 60-2 60-20 0-13 7-20 20-20 13 0 20-7 20-20 0-13-7-20-20-20-13 0-20-7-20-20 0-13 7-20 20-20 13 0 20 7 20 20 0 17 7 20 40 20 33 0 40-3 40-20 0-17 7-20 40-20 33 0 40 3 40 20 0 13 7 20 20 20 13 0 20-7 20-20 0-17 7-20 40-20 33 0 40 3 40 20 0 13 7 20 20 20 18 0 20 7 20 80 0 73 2 80 20 80 18 0 20-7 20-60 0-53 2-60 20-60 13 0 20-7 20-20 0-13-7-20-20-20-13 0-20-7-20-20 0-13 7-20 20-20 13 0 20 7 20 20 0 17 7 20 40 20 33 0 40-3 40-20 0-13 7-20 20-20 17 0 20 7 20 40 0 33 3 40 20 40 13 0 20 7 20 20 0 13-7 20-20 20-13 0-20 7-20 20 0 19 7 20 1e2 20 93 0 1e2-1 1e2-20 0-13 7-20 20-20 13 0 20 7 20 20 0 13 7 20 20 20 17 0 20-7 20-40 0-33 3-40 20-40 13 0 20 7 20 20 0 13 7 20 20 20 17 0 20-7 20-40 0-33-3-40-20-40-13 0-20-7-20-20 0-17 7-20 40-20 33 0 40 3 40 20 0 13 7 20 20 20 19 0 20 7 20 140v140h-60c-53 0-60 2-60 20 0 13-7 20-20 20-13 0-20 7-20 20 0 13 7 20 20 20 17 0 20 7 20 40v40h-60c-53 0-60 2-60 20 0 13 7 20 20 20 17 0 20 7 20 40 0 33 3 40 20 40 13 0 20 7 20 20 0 13 7 20 20 20 13 0 20-7 20-20 0-13 7-20 20-20 19 0 20-7 20-120V820h40 40v60c0 53-2 60-20 60-13 0-20 7-20 20 0 13 7 20 20 20 19 0 20 7 20 140 0 133-1 140-20 140-18 0-20-7-20-60 0-53-2-60-20-60-17 0-20 7-20 40 0 33-3 40-20 40-13 0-20-7-20-20 0-13-7-20-20-20-13 0-20 7-20 20 0 13-7 20-20 20-13 0-20 7-20 20 0 17 7 20 40 20h40v40c0 33 3 40 20 40 13 0 20-7 20-20 0-17 7-20 40-20h40v140c0 133-1 140-20 140-13 0-20 7-20 20 0 13 7 20 20 20 17 0 20 7 20 40v40h-40-40v-60-60h-80c-73 0-80-2-80-20 0-13-7-20-20-20-13 0-20 7-20 20 0 13-7 20-20 20-17 0-20 7-20 40 0 33 3 40 20 40 13 0 20-7 20-20 0-13 7-20 20-20 13 0 20 7 20 20 0 17 7 20 40 20 33 0 40-3 40-20 0-13 7-20 20-20 13 0 20 7 20 20 0 13-7 20-20 20-13 0-20 7-20 20 0 13 7 20 20 20 13 0 20 7 20 20 0 17-7 20-40 20-33 0-40 3-40 20 0 17-7 20-40 20-33 0-40-3-40-20 0-13-7-20-20-20-13 0-20-7-20-20 0-13-7-20-20-20-13 0-20-7-20-20 0-13-7-20-20-20-13 0-20 7-20 20 0 13-7 20-20 20-13 0-20-7-20-20 0-13-7-20-20-20-17 0-20 7-20 40 0 33 3 40 20 40 13 0 20 7 20 20 0 13 7 20 20 20 13 0 20-7 20-20 0-13 7-20 20-20 13 0 20 7 20 20 0 13-7 20-20 20-17 0-20 7-20 40 0 33 3 40 20 40 13 0 20-7 20-20 0-13 7-20 20-20 13 0 20 7 20 20 0 13-7 20-20 20-13 0-20 7-20 20 0 13 7 20 20 20 19 0 20 7 20 1e2.0 93-1 1e2-20 1e2-13 0-20-7-20-20 0-17-7-20-40-20-33 0-40-3-40-20 0-17-7-20-40-20-33 0-40-3-40-20 0-13 7-20 20-20 13 0 20-7 20-20 0-13 7-20 20-20 13 0 20 7 20 20 0 17 7 20 40 20h40v-40-40h-40-40v-40c0-33-3-40-20-40-17 0-20 7-20 40 0 33-3 40-20 40-13 0-20 7-20 20 0 13-7 20-20 20-13 0-20 7-20 20 0 13-7 20-20 20-13 0-20 7-20 20 0 13-7 20-20 20-13 0-20-7-20-20 0-13 7-20 20-20 19 0 20-7 20-1e2v-1e2h60c53 0 60-2 60-20 0-17-7-20-40-20h-40v-40c0-33-3-40-20-40-17 0-20 7-20 40 0 33-3 40-20 40-13 0-20 7-20 20 0 13-7 20-20 20-17 0-20-7-20-40 0-33-3-40-20-40-13 0-20 7-20 20 0 13-7 20-20 20-13 0-20 7-20 20 0 13 7 20 20 20 17 0 20 7 20 40 0 33 3 40 20 40 13 0 20-7 20-20 0-13 7-20 20-20 18 0 20 7 20 60 0 53-2 60-20 60-18 0-20 7-20 60 0 53 2 60 20 60 13 0 20 7 20 20 0 13-7 20-20 20-13 0-20-7-20-20 0-13-7-20-20-20-13 0-20 7-20 20 0 13-7 20-20 20-17 0-20-7-20-40 0-33-3-40-20-40-17 0-20 7-20 40v40h-80c-73 0-80-2-80-20 0-13-7-20-20-20-13 0-20 7-20 20 0 13-7 20-20 20-13 0-20-7-20-20 0-13-7-20-20-20-13 0-20 7-20 20 0 13-7 20-20 20-17 0-20-7-20-40v-40h40c33 0 40 3 40 20 0 13 7 20 20 20 17 0 20-7 20-40 0-33 3-40 20-40 13 0 20-7 20-20 0-17-7-20-40-20-33 0-40 3-40 20 0 18-7 20-60 20h-60v40c0 33-3 40-20 40-13 0-20 7-20 20 0 13-7 20-20 20-13 0-20-7-20-20zm320-40c0-13 7-20 20-20 13 0 20-7 20-20 0-13 7-20 20-20 13 0 20-7 20-20 0-17-7-20-40-20-33 0-40-3-40-20 0-13 7-20 20-20 13 0 20-7 20-20 0-13 7-20 20-20 13 0 20-7 20-20 0-13 7-20 20-20 13 0 20 7 20 20 0 13 7 20 20 20 17 0 20-7 20-40v-40h-40-40v-40c0-33 3-40 20-40 13 0 20 7 20 20 0 13 7 20 20 20 13 0 20-7 20-20 0-13-7-20-20-20-18 0-20-7-20-60v-60h-40c-33 0-40-3-40-20 0-18-7-20-60-20-53 0-60 2-60 20 0 13-7 20-20 20-17 0-20 7-20 40 0 33-3 40-20 40-13 0-20 7-20 20 0 18-7 20-60 20-53 0-60-2-60-20 0-17 7-20 40-20 33 0 40-3 40-20 0-13-7-20-20-20-13 0-20-7-20-20 0-13 7-20 20-20 17 0 20-7 20-40 0-33-3-40-20-40-13 0-20-7-20-20 0-13 7-20 20-20 13 0 20-7 20-20 0-13 7-20 20-20 13 0 20-7 20-20 0-13-7-20-20-20-13 0-20 7-20 20 0 17-7 20-40 20h-40v40c0 33 3 40 20 40 13 0 20 7 20 20 0 13-7 20-20 20-18 0-20 7-20 60v60h-40c-33 0-40-3-40-20 0-13 7-20 20-20 13 0 20-7 20-20 0-13-7-20-20-20-17 0-20-7-20-40 0-33 3-40 20-40 17 0 20-7 20-40 0-33-3-40-20-40-17 0-20 7-20 40 0 33-3 40-20 40-18 0-20 7-20 60v60h-40c-33 0-40 3-40 20 0 13 7 20 20 20 13 0 20 7 20 20 0 17-7 20-40 20-33 0-40 3-40 20 0 18 7 20 60 20 53 0 60 2 60 20 0 17 7 20 40 20h40v-40c0-33 3-40 20-40 17 0 20 7 20 40 0 33 3 40 20 40 13 0 20-7 20-20 0-13 7-20 20-20 13 0 20 7 20 20 0 13 7 20 20 20 13 0 20 7 20 20 0 13-7 20-20 20-13 0-20 7-20 20 0 13-7 20-20 20-13 0-20-7-20-20 0-13-7-20-20-20-13 0-20 7-20 20 0 13-7 20-20 20-13 0-20-7-20-20 0-13-7-20-20-20-13 0-20 7-20 20 0 13 7 20 20 20 13 0 20 7 20 20 0 13 7 20 20 20 13 0 20 7 20 20 0 13-7 20-20 20-13 0-20 7-20 20 0 17 7 20 40 20 33 0 40-3 40-20 0-18 7-20 60-20 53 0 60-2 60-20 0-13-7-20-20-20-17 0-20-7-20-40 0-33 3-40 20-40 13 0 20 7 20 20 0 13 7 20 20 20 13 0 20-7 20-20 0-13 7-20 20-20 18 0 20 7 20 60 0 53 2 60 20 60 13 0 20 7 20 20 0 13-7 20-20 20-17 0-20 7-20 40 0 33 3 40 20 40 13 0 20-7 20-20zm2e2-40c0-13-7-20-20-20-13 0-20 7-20 20 0 13 7 20 20 20 13 0 20-7 20-20zm2e2-140c0-33-3-40-20-40-17 0-20 7-20 40 0 33 3 40 20 40 17 0 20-7 20-40zm-160-240v-40h1e2 1e2v-40c0-33-3-40-20-40-13 0-20 7-20 20 0 13-7 20-20 20-17 0-20-7-20-40 0-33 3-40 20-40 13 0 20-7 20-20 0-16-7-20-30-20-23 0-30-4-30-20 0-11 5-20 10-20 6 0 10-9 10-20 0-13 7-20 20-20 17 0 20-7 20-40 0-33 3-40 20-40 18 0 20 7 20 60 0 53 2 60 20 60 13 0 20-7 20-20 0-13 7-20 20-20 17 0 20 7 20 40 0 33-3 40-20 40-13 0-20 7-20 20 0 18 7 20 60 20 53 0 60 2 60 20 0 13-7 20-20 20-17 0-20 7-20 40 0 33-3 40-20 40-17 0-20-7-20-40 0-33-3-40-20-40-18 0-20 7-20 80 0 73 2 80 20 80 13 0 20-7 20-20 0-13 7-20 20-20 13 0 20-7 20-20 0-13 7-20 20-20 17 0 20-7 20-40v-40h40c33 0 40 3 40 20 0 13 7 20 20 20 13 0 20-7 20-20 0-13 7-20 20-20 13 0 20-7 20-20 0-13 7-20 20-20 17 0 20 7 20 40v40h40c33 0 40-3 40-20 0-13-7-20-20-20-13 0-20-7-20-20 0-13 7-20 20-20 18 0 20-7 20-60 0-53-2-60-20-60-17 0-20 7-20 40v40h-60-60v40c0 33-3 40-20 40-17 0-20-7-20-40v-40h-40c-33 0-40-3-40-20 0-17 7-20 40-20h40v-40c0-33 3-40 20-40 17 0 20 7 20 40 0 33 3 40 20 40 17 0 20-7 20-40 0-33-3-40-20-40-13 0-20-7-20-20 0-17-7-20-40-20-33 0-40-3-40-20 0-17-7-20-40-20-33 0-40-3-40-20 0-13-7-20-20-20-13 0-20-7-20-20 0-13 7-20 20-20 18 0 20-7 20-60 0-53-2-60-20-60-13 0-20-7-20-20 0-17 7-20 40-20 33 0 40-3 40-20 0-17 7-20 40-20h40v-40c0-33 3-40 20-40 13 0 20-7 20-20 0-17-7-20-40-20h-40v40c0 33-3 40-20 40-13 0-20 7-20 20 0 17-7 20-40 20-33 0-40-3-40-20 0-13 7-20 20-20 13 0 20-7 20-20 0-13 7-20 20-20 13 0 20-7 20-20 0-17-7-20-40-20h-40v-60c0-53-2-60-20-60-13 0-20 7-20 20 0 13-7 20-20 20-13 0-20 7-20 20 0 13-7 20-20 20-13 0-20 7-20 20 0 13-7 20-20 20-17 0-20-7-20-40 0-33-3-40-20-40-13 0-20-7-20-20 0-13-7-20-20-20-13 0-20-7-20-20 0-13-7-20-20-20-13 0-20-7-20-20 0-17-7-20-40-20-33 0-40-3-40-20 0-17 7-20 40-20h40v-40-40h-40-40v40c0 33-3 40-20 40-13 0-20-7-20-20 0-17-7-20-40-20-33 0-40 3-40 20 0 13-7 20-20 20-13 0-20-7-20-20 0-13-7-20-20-20-13 0-20 7-20 20 0 13-7 20-20 20-13 0-20 7-20 20 0 17 7 20 40 20 33 0 40 3 40 20 0 13 7 20 20 20 13 0 20-7 20-20 0-17 7-20 40-20 33 0 40 3 40 20 0 13-7 20-20 20-17 0-20 7-20 40 0 33-3 40-20 40-13 0-20 7-20 20 0 17-7 20-40 20-33 0-40-3-40-20 0-13 7-20 20-20 13 0 20-7 20-20 0-13-7-20-20-20-13 0-20 7-20 20 0 13-7 20-20 20-13 0-20 7-20 20 0 13-7 20-20 20-13 0-20 7-20 20 0 13-7 20-20 20-17 0-20-7-20-40 0-33-3-40-20-40-17 0-20 7-20 40 0 33-3 40-20 40-17 0-20-7-20-40 0-33-3-40-20-40-17 0-20 7-20 40 0 33-3 40-20 40-13 0-20-7-20-20 0-13-7-20-20-20-17 0-20 7-20 40 0 33-3 40-20 40-13 0-20 7-20 20 0 17-7 20-40 20-33 0-40 3-40 20 0 13 7 20 20 20 13 0 20 7 20 20 0 13-7 20-20 20-13 0-20 7-20 20 0 17 7 20 40 20h40v-40c0-33 3-40 20-40 17 0 20-7 20-40 0-33 3-40 20-40 17 0 20 7 20 40 0 33 3 40 20 40 13 0 20 7 20 20 0 17 7 20 40 20 33 0 40-3 40-20 0-17 7-20 40-20 33 0 40 3 40 20 0 13-7 20-20 20-13 0-20 7-20 20 0 13 7 20 20 20 13 0 20-7 20-20 0-13 7-20 20-20 13 0 20 7 20 20 0 13-7 20-18 20-10 0-24 9-32 20-11 15-26 20-62 20-41 0-48 3-48 20 0 13-7 20-20 20-13 0-20 7-20 20 0 13 7 20 20 20 13 0 20-7 20-20 0-13 7-20 20-20 13 0 20 7 20 20 0 13 7 20 20 20 17 0 20 7 20 40 0 22 5 40 10 40 6 0 10 18 10 40 0 22-4 40-10 40-5 0-10 18-10 40 0 22 5 40 10 40 6 0 10 9 10 20 0 11-4 20-10 20-5 0-10 9-10 20 0 11 5 20 10 20 6 0 10 9 10 20 0 11-4 20-10 20-5 0-10 9-10 20 0 17 7 20 40 20 22 0 40-4 40-10 0-6 47-10 120-10 73 0 120 4 120 10 0 6 9 10 20 10 11 0 20-4 20-10 0-5 9-10 20-10 16 0 20 7 20 30 0 23-4 30-20 30-13 0-20 7-20 20 0 13-7 20-20 20-13 0-20 7-20 20 0 17 7 20 40 20h40v-40zm80 20c0-13-7-20-20-20-13 0-20 7-20 20 0 13 7 20 20 20 13 0 20-7 20-20zm120 0c0-13-7-20-20-20-13 0-20 7-20 20 0 13 7 20 20 20 13 0 20-7 20-20zm-880-80c0-17-7-20-40-20-33 0-40 3-40 20 0 17 7 20 40 20 33 0 40-3 40-20zm0-80c0-13 7-20 20-20 13 0 20-7 20-20 0-13-7-20-20-20-13 0-20 7-20 20 0 13-7 20-20 20-13 0-20 7-20 20 0 13 7 20 20 20 13 0 20-7 20-20zm-160-120c0-13-7-20-20-20-13 0-20 7-20 20 0 13 7 20 20 20 13 0 20-7 20-20zm160-40c0-13 7-20 20-20 13 0 20-7 20-20 0-13-7-20-20-20-13 0-20 7-20 20 0 13-7 20-20 20-13 0-20 7-20 20 0 13 7 20 20 20 13 0 20-7 20-20zm0-160c0-13-7-20-20-20-13 0-20 7-20 20 0 13 7 20 20 20 13 0 20-7 20-20zm1160 0c0-13 7-20 20-20 13 0 20-7 20-20 0-13-7-20-20-20-13 0-20-7-20-20 0-13-7-20-20-20-17 0-20-7-20-40 0-33-3-40-20-40-13 0-20 7-20 20 0 13-7 20-20 20-13 0-20 7-20 20 0 17 7 20 40 20 33 0 40 3 40 20 0 13-7 20-20 20-13 0-20 7-20 20 0 13-7 20-20 20-13 0-20 7-20 20 0 18 7 20 60 20 53 0 60-2 60-20zM620 1040c0-13 7-20 20-20 13 0 20-7 20-20 0-17-7-20-40-20-33 0-40-3-40-20 0-13-7-20-20-20-13 0-20 7-20 20 0 13 7 20 20 20 17 0 20 7 20 40 0 33 3 40 20 40 13 0 20-7 20-20zm1280-320v-60h-60-60v60 60h60 60v-60zm80 40c0-13-7-20-20-20-13 0-20 7-20 20 0 13 7 20 20 20 13 0 20-7 20-20zm80-1e2c0-73-2-80-20-80-13 0-20 7-20 20 0 17-7 20-40 20-33 0-40 3-40 20 0 13 7 20 20 20 13 0 20 7 20 20 0 13 7 20 20 20 13 0 20 7 20 20 0 13 7 20 20 20 18 0 20-7 20-80zm-440 20c0-13 7-20 20-20 13 0 20-7 20-20 0-13-7-20-20-20-13 0-20-7-20-20 0-13 7-20 20-20 13 0 20-7 20-20 0-13-7-20-20-20-13 0-20 7-20 20 0 13-7 20-20 20-13 0-20 7-20 20 0 13-7 20-20 20-13 0-20 7-20 20 0 13 7 20 20 20 13 0 20 7 20 20 0 13 7 20 20 20 13 0 20-7 20-20z"/><path d="M9e2 1880c0-13 7-20 20-20 13 0 20 7 20 20 0 13-7 20-20 20-13 0-20-7-20-20z"/><path d="M1180 1840c0-13-7-20-20-20-17 0-20-7-20-40v-40h-40c-33 0-40 3-40 20 0 13 7 20 20 20 13 0 20 7 20 20 0 13-7 20-20 20-13 0-20-7-20-20 0-13-7-20-20-20-17 0-20-7-20-40 0-33 3-40 20-40 13 0 20-7 20-20 0-13 7-20 20-20 13 0 20 7 20 20 0 13 7 20 20 20 17 0 20-7 20-40 0-33-3-40-20-40-13 0-20-7-20-20 0-13 7-20 20-20 13 0 20 7 20 20 0 13 7 20 20 20 13 0 20-7 20-20 0-13 7-20 20-20 13 0 20 7 20 20 0 13-7 20-20 20-17 0-20 7-20 40 0 33 3 40 20 40 13 0 20-7 20-20 0-13 7-20 20-20 13 0 20 7 20 20 0 13-7 20-20 20-17 0-20 7-20 40 0 33-3 40-20 40-13 0-20 7-20 20 0 13 7 20 20 20 13 0 20 7 20 20 0 13-7 20-20 20-13 0-20-7-20-20z"/><path d="M1084 1467c-2-7-3-96-2-197l3-185 180-1c99-1 188 1 198 3 15 4 17 21 17 187 0 128-4 186-12 194-7 7-43 12-93 12-78 0-81-1-98-29-9-16-17-35-16-43 0-7 5-3 11 8 16 35 51 45 95 30l38-13-1-101c-1-105-14-139-48-126-10 4-16 1-16-7 0-8-15 4-32 26-18 21-31 47-30 57 2 10-2 18-8 18-6 0-8 5-4 12 5 8 0 9-14 6-23-6-32 15-12 27 8 5 8 11 1 19-6 7-10 15-8 17 1 2-4-2-10-10-16-18-17-68-2-73 8-3 8-19 1-58-5-30-10-44-12-30-1 23-2 23-10 5-8-22-27 122-23 185 4 68-3 80-48 80-23 0-42-5-45-13zm222-273c9-35-15-59-50-50-27 7-37 36-12 36 7 0 19 6 25 14 10 12 8 15-11 19-17 3-15 5 9 6 27 1 34-3 39-25z"/><path d="M1740 1360c0-13 7-20 20-20 13 0 20 7 20 20 0 13-7 20-20 20-13 0-20-7-20-20z"/><path d="M1290 1361c0-41 41-56 60-22 14 28 12 35-6 20-12-10-20-10-35-1-10 7-19 8-19 3z"/><path d="M1520 1280c0-11 5-20 10-20 6 0 10-9 10-20 0-11-4-20-10-20-5 0-10-18-10-40 0-38 2-40 30-40h30v60c0 53-2 60-20 60-13 0-20 7-20 20 0 11-4 20-10 20-5 0-10-9-10-20z"/><path d="M17e2 1280c0-13-7-20-20-20-13 0-20-7-20-20 0-13 7-20 20-20 13 0 20 7 20 20 0 18 7 20 60 20 53 0 60 2 60 20 0 18-7 20-60 20-53 0-60-2-60-20z"/><path d="M1620 1140v-40h-40c-29 0-40-4-40-15 0-29-47-65-85-65-28 0-35-4-35-20 0-17 7-20 40-20 33 0 40-3 40-20 0-13-7-20-20-20-13 0-20-7-20-20 0-13-7-20-20-20-13 0-20 7-20 20 0 13-7 20-20 20-13 0-20 7-20 20 0 13-7 20-20 20-13 0-20 7-20 20 0 17-7 20-40 20-22 0-40 5-40 10 0 6-18 10-40 10-22 0-40-4-40-10 0-5-9-10-20-10-17 0-20-7-20-40 0-33-3-40-20-40-13 0-20-7-20-20 0-13-7-20-20-20-13 0-20-7-20-20 0-13 7-20 20-20 13 0 20 7 20 20 0 13 7 20 20 20 13 0 20 7 20 20 0 13 7 20 20 20 13 0 20 7 20 20 0 18 7 20 60 20h60v-40c0-33-3-40-20-40-13 0-20 7-20 20 0 13-7 20-20 20-13 0-20-7-20-20 0-13-7-20-20-20-13 0-20-7-20-20 0-13 7-20 20-20 13 0 20-7 20-20 0-13 7-20 20-20 13 0 20-7 20-20 0-13 7-20 20-20 18 0 20-7 20-60 0-53 2-60 20-60 13 0 20 7 20 20 0 13 7 20 20 20 13 0 20 7 20 20 0 13 7 20 20 20 13 0 20-7 20-20 0-13 7-20 20-20 13 0 20 7 20 20 0 13 7 20 20 20 17 0 20 7 20 40 0 33 3 40 20 40 13 0 20 7 20 20 0 13-7 20-20 20-17 0-20 7-20 40 0 33 3 40 20 40 13 0 20 7 20 20 0 17 7 20 40 20 33 0 40-3 40-20 0-13-7-20-20-20-17 0-20-7-20-40 0-33 3-40 20-40 17 0 20-7 20-40 0-33 3-40 20-40 13 0 20 7 20 20 0 13 7 20 20 20 13 0 20 7 20 20 0 13-7 20-20 20-13 0-20 7-20 20 0 13-7 20-20 20-13 0-20 7-20 20 0 17 7 20 40 20 33 0 40 3 40 20 0 13-7 20-20 20-17 0-20 7-20 40 0 33 3 40 20 40 17 0 20 7 20 40 0 33-3 40-20 40-13 0-20 7-20 20 0 13-7 20-20 20-17 0-20-7-20-40zm0-1e2c0-13-7-20-20-20-13 0-20 7-20 20 0 13 7 20 20 20 13 0 20-7 20-20zm-360-160c0-13 7-20 20-20 13 0 20 7 20 20 0 13 7 20 20 20 13 0 20-7 20-20 0-18 7-20 80-20 73 0 80-2 80-20 0-13-7-20-20-20-13 0-20-7-20-20 0-13-7-20-20-20-13 0-20 7-20 20 0 18-7 20-80 20-73 0-80 2-80 20 0 13-7 20-20 20-13 0-20 7-20 20 0 13 7 20 20 20 13 0 20-7 20-20z"/><path d="M9e2 9e2v-40h40c33 0 40-3 40-20 0-13 7-20 20-20 13 0 20 7 20 20 0 13-7 20-20 20-13 0-20 7-20 20 0 13-7 20-20 20-13 0-20 7-20 20 0 13-7 20-20 20-17 0-20-7-20-40z"/><path d="M1860 1120c0-13 7-20 20-20 13 0 20 7 20 20 0 13-7 20-20 20-13 0-20-7-20-20z"/><path d="M1820 720c0-13 7-20 20-20 13 0 20 7 20 20 0 13-7 20-20 20-13 0-20-7-20-20z"/><path d="M1580 640c0-13 7-20 20-20 13 0 20 7 20 20 0 13-7 20-20 20-13 0-20-7-20-20z"/><path d="M1540 2080c0-13 7-20 20-20 13 0 20 7 20 20 0 13-7 20-20 20-13 0-20-7-20-20z"/><path d="M1820 1960v-140h140 140v140 140h-140-140v-140zm240 0v-1e2h-1e2-1e2v1e2 1e2h1e2 1e2v-1e2z"/><path d="M2020 1760c0-13 7-20 20-20 13 0 20 7 20 20 0 13-7 20-20 20-13 0-20-7-20-20z"/><path d="M460 1520c0-17 7-20 40-20 33 0 40 3 40 20 0 17-7 20-40 20-33 0-40-3-40-20z"/><path d="M1940 1e3c0-13 7-20 20-20 13 0 20 7 20 20 0 13-7 20-20 20-13 0-20-7-20-20z"/><path d="M580 840c0-18-7-20-60-20-53 0-60-2-60-20 0-18 7-20 80-20h80v40c0 33-3 40-20 40-13 0-20-7-20-20z"/><path d="M460 6e2V460h140 140v140 140H6e2 460V6e2zm240 0V5e2H6e2 5e2v1e2 1e2h1e2 1e2V6e2z"/><path d="M1780 560c0-13-7-20-20-20-13 0-20-7-20-20 0-13-7-20-20-20-13 0-20-7-20-20 0-18 7-20 60-20 53 0 60 2 60 20 0 13-7 20-20 20-13 0-20 7-20 20 0 13 7 20 20 20 13 0 20 7 20 20 0 13-7 20-20 20-13 0-20-7-20-20z"/><path d="M1860 5e2v-40h40c33 0 40 3 40 20 0 13-7 20-20 20-13 0-20 7-20 20 0 13-7 20-20 20-17 0-20-7-20-40z"/><path d="M9e2 480c0-13 7-20 20-20 13 0 20 7 20 20 0 13-7 20-20 20-13 0-20-7-20-20z"/></g></svg>