<?xml version="1.0" standalone="no"?>
<!DOCTYPE svg PUBLIC "-//W3C//DTD SVG 20010904//EN"
 "http://www.w3.org/TR/2001/REC-SVG-20010904/DTD/svg10.dtd">
<svg version="1.0" xmlns="http://www.w3.org/2000/svg"
 width="487.000000pt" height="109.000000pt" viewBox="0 0 487.000000 109.000000"
 preserveAspectRatio="xMidYMid meet">

<g transform="translate(0.000000,109.000000) scale(0.100000,-0.100000)"
fill="#000000" stroke="none">
<path d="M90 535 l0 -455 455 0 455 0 0 455 0 455 -455 0 -455 0 0 -455z m296
170 c51 -87 91 -161 90 -165 -1 -3 -47 -80 -101 -172 -96 -165 -98 -168 -131
-168 l-34 0 0 336 0 335 42 -3 42 -3 92 -160z m494 35 l0 -131 -151 3 -151 3
-55 95 c-30 52 -64 110 -75 128 l-20 32 226 0 226 0 0 -130z m0 -395 l0 -145
-231 0 -231 0 34 58 c18 32 56 97 83 145 l50 86 148 1 147 0 0 -145z"/>
<path d="M2485 885 c-30 -29 -32 -51 -6 -65 45 -24 91 2 91 52 0 44 -48 51
-85 13z"/>
<path d="M2211 881 c-11 -11 -24 -37 -30 -58 -5 -21 -14 -57 -20 -79 -13 -48
-72 -126 -135 -178 -24 -20 -47 -36 -49 -36 -3 0 3 23 14 50 10 28 19 61 19
73 0 28 -32 65 -64 73 -43 10 -117 -40 -170 -116 l-18 -25 5 35 c6 45 -8 70
-39 70 -33 0 -40 -22 -48 -155 -4 -60 -12 -151 -18 -202 -6 -51 -8 -103 -4
-116 7 -29 38 -40 61 -23 17 13 34 112 35 210 0 37 8 62 35 106 41 67 108 140
130 140 44 0 -21 -168 -76 -198 -70 -37 -84 -75 -33 -88 30 -8 134 53 246 142
l76 62 4 -83 c3 -72 6 -87 27 -109 48 -51 142 -21 222 72 l35 41 11 -42 c26
-97 104 -117 199 -52 30 21 68 53 84 72 l30 34 0 -56 c0 -46 4 -60 25 -80 42
-43 106 -32 174 31 38 34 52 66 33 78 -5 3 -30 -11 -57 -30 -89 -63 -109 -37
-80 102 20 94 15 90 123 100 80 7 112 25 90 51 -9 12 -30 14 -90 11 -43 -2
-78 -1 -78 3 0 3 7 27 16 52 20 59 13 79 -23 75 -24 -3 -31 -12 -52 -70 l-25
-67 -50 -7 c-56 -7 -70 -19 -55 -46 7 -12 21 -18 44 -18 19 0 35 -5 35 -11 0
-15 -100 -111 -155 -149 -93 -64 -129 -21 -108 128 8 53 8 81 1 89 -16 19 -27
16 -59 -16 -20 -20 -29 -39 -29 -62 0 -56 -121 -179 -176 -179 -31 0 -37 37
-24 146 13 103 15 115 42 208 15 53 17 75 9 93 -13 28 -34 30 -60 4z"/>
<path d="M3677 889 c-9 -5 -24 -23 -32 -39 -13 -26 -13 -30 3 -50 26 -33 58
-19 73 30 9 31 9 43 -1 55 -15 17 -19 18 -43 4z"/>
<path d="M3024 876 c-7 -19 5 -55 89 -256 81 -195 114 -260 131 -260 8 0 21
-3 30 -6 10 -4 21 7 37 38 12 24 58 96 102 162 122 183 149 253 109 289 -27
24 -41 9 -92 -103 -51 -112 -159 -285 -171 -273 -4 4 -35 78 -68 164 -86 226
-100 253 -134 257 -17 2 -29 -2 -33 -12z"/>
<path d="M1363 855 c-59 -18 -127 -60 -147 -89 -21 -34 -20 -74 4 -114 26 -42
66 -66 165 -98 130 -43 136 -66 29 -116 -60 -28 -72 -30 -140 -25 -65 5 -75 3
-84 -13 -16 -29 -12 -38 20 -55 53 -28 165 -13 256 33 44 23 114 94 114 116 0
59 -42 92 -165 132 -92 30 -143 71 -125 103 17 33 90 61 159 61 61 0 63 -1 74
-30 15 -39 46 -37 66 4 12 26 12 33 0 55 -26 47 -136 65 -226 36z"/>
<path d="M4026 759 c-59 -16 -112 -89 -136 -187 -15 -62 -18 -65 -74 -100 -44
-27 -69 -36 -104 -36 l-47 -1 -3 42 c-2 22 4 69 13 103 18 69 11 90 -30 90
-40 0 -45 -15 -61 -182 -6 -65 -6 -68 24 -97 25 -25 39 -31 74 -31 46 0 104
23 164 64 l38 25 30 -35 c64 -74 168 -52 294 62 41 36 63 51 66 42 3 -7 12
-38 20 -69 19 -68 55 -123 83 -127 25 -4 45 23 98 128 l37 74 25 -61 c30 -74
63 -113 97 -113 33 0 49 25 86 135 16 48 39 103 50 122 35 59 19 99 -29 73
-26 -13 -51 -63 -82 -157 -12 -40 -26 -73 -30 -73 -11 0 -51 101 -58 148 -8
57 -32 75 -60 47 -11 -11 -44 -66 -74 -123 l-54 -104 -12 34 c-7 18 -15 72
-18 121 -6 91 -17 113 -51 103 -19 -6 -42 -45 -42 -70 0 -19 -129 -127 -178
-148 -49 -22 -90 -21 -105 3 -9 14 1 28 52 75 70 65 91 98 91 146 0 62 -37 92
-94 77z m24 -92 c0 -24 -55 -107 -71 -107 -22 0 3 72 39 113 21 23 32 21 32
-6z"/>
</g>
</svg>
